<svg width="25" height="24" viewBox="0 0 25 24" fill="none" xmlns="http://www.w3.org/2000/svg">
<g clip-path="url(#clip0_409_4373)" filter="url(#filter0_d_409_4373)">
<rect width="16" height="16" transform="translate(4.5)" fill="white" fill-opacity="0.01"/>
<g clip-path="url(#clip1_409_4373)">
<path d="M12.4998 14.9992C10.6432 14.9992 8.86276 14.2617 7.55001 12.949C6.23725 11.6362 5.49976 9.85572 5.49976 7.99921C5.49976 6.14269 6.23725 4.36221 7.55001 3.04946C8.86276 1.7367 10.6432 0.999207 12.4998 0.999207C14.3563 0.999207 16.1367 1.7367 17.4495 3.04946C18.7623 4.36221 19.4998 6.14269 19.4998 7.99921C19.4998 9.85572 18.7623 11.6362 17.4495 12.949C16.1367 14.2617 14.3563 14.9992 12.4998 14.9992ZM12.4998 15.9992C14.6215 15.9992 16.6563 15.1564 18.1566 13.6561C19.6569 12.1558 20.4998 10.1209 20.4998 7.99921C20.4998 5.87747 19.6569 3.84264 18.1566 2.34235C16.6563 0.842061 14.6215 -0.000793457 12.4998 -0.000793457C10.378 -0.000793457 8.34319 0.842061 6.8429 2.34235C5.34261 3.84264 4.49976 5.87747 4.49976 7.99921C4.49976 10.1209 5.34261 12.1558 6.8429 13.6561C8.34319 15.1564 10.378 15.9992 12.4998 15.9992Z" fill="white"/>
<path d="M12.4998 3.99921C12.6324 3.99921 12.7595 4.05189 12.8533 4.14565C12.9471 4.23942 12.9998 4.3666 12.9998 4.49921V7.49921H15.9998C16.1324 7.49921 16.2595 7.55189 16.3533 7.64565C16.4471 7.73942 16.4998 7.8666 16.4998 7.99921C16.4998 8.13181 16.4471 8.25899 16.3533 8.35276C16.2595 8.44653 16.1324 8.49921 15.9998 8.49921H12.9998V11.4992C12.9998 11.6318 12.9471 11.759 12.8533 11.8528C12.7595 11.9465 12.6324 11.9992 12.4998 11.9992C12.3671 11.9992 12.24 11.9465 12.1462 11.8528C12.0524 11.759 11.9998 11.6318 11.9998 11.4992V8.49921H8.99976C8.86715 8.49921 8.73997 8.44653 8.6462 8.35276C8.55243 8.25899 8.49976 8.13181 8.49976 7.99921C8.49976 7.8666 8.55243 7.73942 8.6462 7.64565C8.73997 7.55189 8.86715 7.49921 8.99976 7.49921H11.9998V4.49921C11.9998 4.3666 12.0524 4.23942 12.1462 4.14565C12.24 4.05189 12.3671 3.99921 12.4998 3.99921Z" fill="white"/>
</g>
</g>
<defs>
<filter id="filter0_d_409_4373" x="0.5" y="0" width="24" height="24" filterUnits="userSpaceOnUse" color-interpolation-filters="sRGB">
<feFlood flood-opacity="0" result="BackgroundImageFix"/>
<feColorMatrix in="SourceAlpha" type="matrix" values="0 0 0 0 0 0 0 0 0 0 0 0 0 0 0 0 0 0 127 0" result="hardAlpha"/>
<feOffset dy="4"/>
<feGaussianBlur stdDeviation="2"/>
<feComposite in2="hardAlpha" operator="out"/>
<feColorMatrix type="matrix" values="0 0 0 0 0 0 0 0 0 0 0 0 0 0 0 0 0 0 0.25 0"/>
<feBlend mode="normal" in2="BackgroundImageFix" result="effect1_dropShadow_409_4373"/>
<feBlend mode="normal" in="SourceGraphic" in2="effect1_dropShadow_409_4373" result="shape"/>
</filter>
<clipPath id="clip0_409_4373">
<rect width="16" height="16" fill="white" transform="translate(4.5)"/>
</clipPath>
<clipPath id="clip1_409_4373">
<rect width="16" height="16" fill="white" transform="translate(4.5)"/>
</clipPath>
</defs>
</svg>
