<svg width="14" height="14" viewBox="0 0 14 14" xmlns="http://www.w3.org/2000/svg">
<g clip-path="url(#clip0_409_3162)">
<rect width="14" height="14" fill-opacity="0.01"/>
<g clip-path="url(#clip1_409_3162)">
<path d="M0.874756 2.18671C0.874756 1.83861 1.01304 1.50477 1.25918 1.25863C1.50532 1.01249 1.83916 0.874207 2.18726 0.874207H4.81226C5.16035 0.874207 5.49419 1.01249 5.74033 1.25863C5.98648 1.50477 6.12476 1.83861 6.12476 2.18671V4.81171C6.12476 5.1598 5.98648 5.49364 5.74033 5.73978C5.49419 5.98593 5.16035 6.12421 4.81226 6.12421H2.18726C1.83916 6.12421 1.50532 5.98593 1.25918 5.73978C1.01304 5.49364 0.874756 5.1598 0.874756 4.81171V2.18671ZM2.18726 1.74921C2.07122 1.74921 1.95994 1.7953 1.8779 1.87735C1.79585 1.95939 1.74976 2.07067 1.74976 2.18671V4.81171C1.74976 4.92774 1.79585 5.03902 1.8779 5.12107C1.95994 5.20311 2.07122 5.24921 2.18726 5.24921H4.81226C4.92829 5.24921 5.03957 5.20311 5.12161 5.12107C5.20366 5.03902 5.24976 4.92774 5.24976 4.81171V2.18671C5.24976 2.07067 5.20366 1.95939 5.12161 1.87735C5.03957 1.7953 4.92829 1.74921 4.81226 1.74921H2.18726ZM7.87476 2.18671C7.87476 1.83861 8.01304 1.50477 8.25918 1.25863C8.50532 1.01249 8.83916 0.874207 9.18726 0.874207H11.8123C12.1604 0.874207 12.4942 1.01249 12.7403 1.25863C12.9865 1.50477 13.1248 1.83861 13.1248 2.18671V4.81171C13.1248 5.1598 12.9865 5.49364 12.7403 5.73978C12.4942 5.98593 12.1604 6.12421 11.8123 6.12421H9.18726C8.83916 6.12421 8.50532 5.98593 8.25918 5.73978C8.01304 5.49364 7.87476 5.1598 7.87476 4.81171V2.18671ZM9.18726 1.74921C9.07122 1.74921 8.95994 1.7953 8.8779 1.87735C8.79585 1.95939 8.74976 2.07067 8.74976 2.18671V4.81171C8.74976 4.92774 8.79585 5.03902 8.8779 5.12107C8.95994 5.20311 9.07122 5.24921 9.18726 5.24921H11.8123C11.9283 5.24921 12.0396 5.20311 12.1216 5.12107C12.2037 5.03902 12.2498 4.92774 12.2498 4.81171V2.18671C12.2498 2.07067 12.2037 1.95939 12.1216 1.87735C12.0396 1.7953 11.9283 1.74921 11.8123 1.74921H9.18726ZM0.874756 9.18671C0.874756 8.83861 1.01304 8.50477 1.25918 8.25863C1.50532 8.01249 1.83916 7.87421 2.18726 7.87421H4.81226C5.16035 7.87421 5.49419 8.01249 5.74033 8.25863C5.98648 8.50477 6.12476 8.83861 6.12476 9.18671V11.8117C6.12476 12.1598 5.98648 12.4936 5.74033 12.7398C5.49419 12.9859 5.16035 13.1242 4.81226 13.1242H2.18726C1.83916 13.1242 1.50532 12.9859 1.25918 12.7398C1.01304 12.4936 0.874756 12.1598 0.874756 11.8117V9.18671ZM2.18726 8.74921C2.07122 8.74921 1.95994 8.7953 1.8779 8.87735C1.79585 8.95939 1.74976 9.07067 1.74976 9.18671V11.8117C1.74976 11.9277 1.79585 12.039 1.8779 12.1211C1.95994 12.2031 2.07122 12.2492 2.18726 12.2492H4.81226C4.92829 12.2492 5.03957 12.2031 5.12161 12.1211C5.20366 12.039 5.24976 11.9277 5.24976 11.8117V9.18671C5.24976 9.07067 5.20366 8.95939 5.12161 8.87735C5.03957 8.7953 4.92829 8.74921 4.81226 8.74921H2.18726ZM7.87476 9.18671C7.87476 8.83861 8.01304 8.50477 8.25918 8.25863C8.50532 8.01249 8.83916 7.87421 9.18726 7.87421H11.8123C12.1604 7.87421 12.4942 8.01249 12.7403 8.25863C12.9865 8.50477 13.1248 8.83861 13.1248 9.18671V11.8117C13.1248 12.1598 12.9865 12.4936 12.7403 12.7398C12.4942 12.9859 12.1604 13.1242 11.8123 13.1242H9.18726C8.83916 13.1242 8.50532 12.9859 8.25918 12.7398C8.01304 12.4936 7.87476 12.1598 7.87476 11.8117V9.18671ZM9.18726 8.74921C9.07122 8.74921 8.95994 8.7953 8.8779 8.87735C8.79585 8.95939 8.74976 9.07067 8.74976 9.18671V11.8117C8.74976 11.9277 8.79585 12.039 8.8779 12.1211C8.95994 12.2031 9.07122 12.2492 9.18726 12.2492H11.8123C11.9283 12.2492 12.0396 12.2031 12.1216 12.1211C12.2037 12.039 12.2498 11.9277 12.2498 11.8117V9.18671C12.2498 9.07067 12.2037 8.95939 12.1216 8.87735C12.0396 8.7953 11.9283 8.74921 11.8123 8.74921H9.18726Z" fill="#495057"/>
</g>
</g>
<defs>
<clipPath id="clip0_409_3162">
<rect width="14" height="14"/>
</clipPath>
<clipPath id="clip1_409_3162">
<rect width="14" height="14"/>
</clipPath>
</defs>
</svg>
