<svg width="17" height="16" viewBox="0 0 17 16" fill="none" xmlns="http://www.w3.org/2000/svg">
<g clip-path="url(#clip0_55_99855)">
<path d="M12.5332 10.344C13.5015 9.02267 13.9352 7.38447 13.7475 5.75713C13.5598 4.12979 12.7646 2.63332 11.5209 1.56711C10.2773 0.500899 8.67693 -0.056418 7.04002 0.00665514C5.4031 0.0697283 3.85037 0.748541 2.69245 1.90729C1.53453 3.06603 0.856832 4.61926 0.79493 6.25621C0.733028 7.89317 1.29149 9.49314 2.35859 10.736C3.42569 11.9789 4.92273 12.773 6.5502 12.9596C8.17767 13.1461 9.81556 12.7112 11.1362 11.742H11.1352C11.1652 11.782 11.1972 11.82 11.2332 11.857L15.0832 15.707C15.2707 15.8946 15.5251 16.0001 15.7903 16.0002C16.0556 16.0003 16.31 15.895 16.4977 15.7075C16.6853 15.52 16.7908 15.2656 16.7909 15.0003C16.791 14.7351 16.6857 14.4806 16.4982 14.293L12.6482 10.443C12.6124 10.4068 12.574 10.3734 12.5332 10.343V10.344ZM12.7912 6.49998C12.7912 7.22225 12.6489 7.93745 12.3725 8.60474C12.0961 9.27203 11.691 9.87834 11.1803 10.3891C10.6695 10.8998 10.0632 11.3049 9.39594 11.5813C8.72865 11.8577 8.01345 12 7.29118 12C6.56891 12 5.85371 11.8577 5.18642 11.5813C4.51913 11.3049 3.91282 10.8998 3.40209 10.3891C2.89137 9.87834 2.48624 9.27203 2.20984 8.60474C1.93344 7.93745 1.79118 7.22225 1.79118 6.49998C1.79118 5.04129 2.37064 3.64234 3.40209 2.61089C4.43354 1.57944 5.83249 0.999979 7.29118 0.999979C8.74987 0.999979 10.1488 1.57944 11.1803 2.61089C12.2117 3.64234 12.7912 5.04129 12.7912 6.49998Z" fill="#212529"/>
</g>
<defs>
<clipPath id="clip0_55_99855">
<rect width="16" height="16" fill="white" transform="translate(0.79126)"/>
</clipPath>
</defs>
</svg>
